<svg class="logo" width="180" height="180" version="1.1" viewBox="0 0 400 400" xmlns="http://www.w3.org/2000/svg" alt="logo">
    <style>
        path {
            fill: #CFD2E6;
        }
        @media (prefers-color-scheme: light) {
            path {
                fill: #181A24;
            }
        }
    </style>
    <path d="m200 0a200 200 0 0 0-200 200 200 200 0 0 0 51 134c4-9 16-40-1-78-15-14-25-34-25-56 0-41 34-75 75-75s75 34 75 75-34 75-75 75c-8 0-16-1-24-4 9 43-9 75-9 75a10 10 0 0 1-1 2 200 200 0 0 0 134 52 200 200 0 0 0 200-200 200 200 0 0 0-200-200zm-100 145c-30 0-55 25-55 55s25 55 55 55c30 0 55-25 55-55s-25-55-55-55zm200 35a20 20 0 0 1 20 20 20 20 0 0 1-20 20 20 20 0 0 1-20-20 20 20 0 0 1 20-20zm-100 100a20 20 0 0 1 20 20 20 20 0 0 1-20 20 20 20 0 0 1-20-20 20 20 0 0 1 20-20z"/>
</svg>